<?xml version="1.0" encoding="UTF-8"?> <svg xmlns="http://www.w3.org/2000/svg" width="636" height="446" viewBox="0 0 636 446" fill="none"><path opacity="0.6" fill-rule="evenodd" clip-rule="evenodd" d="M288.988 181.489C289.057 191.067 288.838 200.645 288.276 210.212C287.956 215.553 287.553 220.722 286.647 226.156C281.747 264.664 267.865 323.733 247.453 354.056C237.643 369.632 225.401 382.733 212.332 395.028C199.275 406.505 185.392 417.154 169.868 425.351C165.783 427.803 160.884 429.438 156.799 431.901C154.355 432.718 152.715 434.365 150.271 435.171C141.287 438.451 132.303 441.732 123.319 444.185C120.875 445.013 118.419 445.013 115.965 445.831C107.807 447.466 104.537 436.817 111.065 432.718C112.706 431.901 114.335 430.255 116.779 429.438C194.869 377.886 188.65 298.268 189.465 296.622C190.28 292.524 187.01 288.425 182.122 288.425H77.585C35.121 288.425 0 254.015 0 210.58V77.845C0 35.24 34.306 0 77.585 0H210.703C253.167 0 288.276 34.421 288.276 77.845C288.276 77.845 288.77 149.451 288.988 181.489ZM635.988 181.489C636.057 191.067 635.838 200.645 635.276 210.212C634.956 215.553 634.553 220.722 633.647 226.156C628.747 264.664 614.865 323.733 594.453 354.056C584.643 369.632 572.401 382.733 559.332 395.028C546.275 406.505 532.392 417.154 516.868 425.351C512.783 427.803 507.884 429.438 503.799 431.901C501.355 432.718 499.715 434.365 497.271 435.171C488.287 438.451 479.303 441.732 470.331 444.185C467.875 445.013 465.42 445.013 462.976 445.831C454.806 447.466 451.536 436.817 458.066 432.718C459.706 431.901 461.336 430.255 463.779 429.438C541.869 377.886 535.65 298.268 536.465 296.622C537.28 292.524 534.01 288.425 529.122 288.425H424.585C382.121 288.425 347 254.015 347 210.58V77.845C347 35.24 381.306 0 424.585 0H557.703C600.167 0 635.276 34.421 635.276 77.845C635.276 77.845 635.77 149.451 635.988 181.489Z" fill="#E5F0F7"></path></svg> 