<?xml version="1.0" encoding="UTF-8"?> <svg xmlns="http://www.w3.org/2000/svg" id="b" viewBox="0 0 1800.58 224.63"><g id="c"><path d="m256.63,5.68v213.56h-49.35V89.73h-6.58l-54.14,129.51h-37.09L55.93,89.73h-7.18v129.51H0V5.68h66.7l57.43,145.96h8.08L189.63,5.68h67Z" fill="#e92371"></path><path d="m406.78,5.68v213.56h-51.45V5.68h51.45Z" fill="#e92371"></path><path d="m645.76,219.24l-42.77-74.18h-8.67l-42.17,74.18h-64.01l69.09-108.28L490.52,5.68h63.71l39.78,70.59h9.27l40.08-70.59h63.71l-66.7,105.28,69.09,108.28h-63.71Z" fill="#e92371"></path><path d="m945.16,5.68v44.27h-60.72v169.29h-51.75V49.95h-60.72V5.68h173.18Z" fill="#e92371"></path><path d="m1075.27,5.68v213.56h-51.45V5.68h51.45Z" fill="#e92371"></path><path d="m1233.19,5.68v168.99h92.42v44.57h-144.17V5.68h51.75Z" fill="#e92371"></path><path d="m1567.58,5.68v44.27h-107.38v39.48h80.76v44.87h-80.76v40.38h107.38v44.57h-159.42V5.68h159.42Z" fill="#e92371"></path><path d="m1642.06,207.58v-51.75c17.05,11.97,46.06,23.33,72.68,23.33,21.54,0,32.9-6.88,32.9-20.64,0-16.75-17.35-18.25-49.65-26.62-40.98-11.07-61.02-30.51-61.02-63.71,0-42.17,32-68.2,83.15-68.2,23.33,0,48.16,6.28,67.6,16.75v48.46c-17.05-9.87-43.07-19.14-66.7-19.14-20.64,0-31.41,5.98-31.41,19.14s16.75,17.95,49.95,26.32c41.58,11.37,61.02,29.01,61.02,62.51,0,43.37-33.5,70.59-86.74,70.59-25.12,0-51.45-6.28-71.78-17.05Z" fill="#e92371"></path></g></svg> 